<?xml version="1.0" encoding="UTF-8" standalone="no"?>
<!-- Created with Inkscape (http://www.inkscape.org/) -->

<svg
   width="512"
   height="512"
   viewBox="0 0 135.46667 135.46667"
   version="1.1"
   id="svg1"
   inkscape:version="1.3.2 (091e20e, 2023-11-25, custom)"
   sodipodi:docname="cnrdiff-logo.svg"
   inkscape:export-filename="cnrdiff-logo2.png"
   inkscape:export-xdpi="96"
   inkscape:export-ydpi="96"
   xmlns:inkscape="http://www.inkscape.org/namespaces/inkscape"
   xmlns:sodipodi="http://sodipodi.sourceforge.net/DTD/sodipodi-0.dtd"
   xmlns="http://www.w3.org/2000/svg"
   xmlns:svg="http://www.w3.org/2000/svg">
  <sodipodi:namedview
     id="namedview1"
     pagecolor="#ffffff"
     bordercolor="#000000"
     borderopacity="0.25"
     inkscape:showpageshadow="2"
     inkscape:pageopacity="0.0"
     inkscape:pagecheckerboard="0"
     inkscape:deskcolor="#d1d1d1"
     inkscape:document-units="mm"
     showgrid="true"
     inkscape:zoom="1.3843855"
     inkscape:cx="203.70049"
     inkscape:cy="282.07461"
     inkscape:window-width="1920"
     inkscape:window-height="991"
     inkscape:window-x="-9"
     inkscape:window-y="-9"
     inkscape:window-maximized="1"
     inkscape:current-layer="layer1">
    <inkscape:grid
       id="grid1"
       units="mm"
       originx="0"
       originy="0"
       spacingx="1"
       spacingy="1"
       empcolor="#0099e5"
       empopacity="0.30196078"
       color="#0099e5"
       opacity="0.14901961"
       empspacing="5"
       dotted="false"
       gridanglex="30"
       gridanglez="30"
       visible="true" />
  </sodipodi:namedview>
  <defs
     id="defs1" />
  <g
     inkscape:label="Layer 1"
     inkscape:groupmode="layer"
     id="layer1">
    <path
       d="m 16.964508,12.733073 v 5.000212 h -4.615565 v 5.000211 H 7.7333781 v 9.999907 9.999906 9.999906 h 4.6155649 v 5.000212 h 4.615565 v 4.999695 h 9.230652 4.615088 4.615565 4.615086 v -4.999695 h 4.615565 v -9.999906 h -9.230651 v 4.999694 H 30.810248 26.19516 21.579595 v -4.999694 h -4.615087 v -5.000212 -9.999906 -5.000212 h 4.615087 v -4.999695 h 4.615565 4.615088 4.615565 v 4.999695 h 9.230651 V 17.733285 H 40.040899 V 12.733073 H 35.425813 30.810248 26.19516 Z"
       id="path2"
       style="stroke-width:0.960767;fill:#0000ff" />
    <path
       d="m 49.27203,12.733073 v 10.000423 9.999907 9.999906 9.999906 9.999907 h 9.230652 v -9.999907 -9.999906 -5.000212 h 4.615087 v 5.000212 h 4.615565 v 5.000212 h 4.615565 v 9.999906 h 4.615089 v 4.999695 h 9.230651 V 52.733215 42.733309 32.733403 22.733496 12.733073 h -9.230651 v 10.000423 9.999907 4.999694 h -4.615089 v -4.999694 h -4.615565 v -5.000212 h -4.615565 v -9.999906 h -4.615087 v -5.000212 z"
       id="path3"
       style="stroke-width:0.960767;fill:#0000ff" />
    <path
       d="m 90.810204,12.733073 v 10.000423 9.999907 9.999906 9.999906 9.999907 h 9.230646 v -9.999907 -4.999694 h 4.61558 v 4.999694 h 4.61508 v 5.000212 h 4.61556 v 4.999695 h 4.61557 4.61508 4.61557 v -9.999907 h -4.61557 -4.61508 v -4.999694 h -4.61557 v -5.000212 h 4.61557 4.61508 v -5.000212 h 4.61557 v -9.999906 -9.999906 h -4.61557 v -5.000212 h -4.61508 -4.61557 -4.61556 -9.23066 z m 9.230646,10.000423 h 9.23066 4.61556 4.61557 v 4.999695 5.000212 h -4.61557 -4.61556 -9.23066 z"
       id="path4"
       style="stroke-width:0.960767;fill:#0000ff" />
    <path
       d="m 7.7333781,72.733545 v 9.999906 9.999907 9.999902 9.99991 9.99991 h 9.9999069 9.999906 9.999906 v -4.9997 h 5.000212 v -9.9999 -9.999911 -10.000423 -9.999906 h -5.000212 v -4.999695 h -9.999906 -9.999906 z m 9.9999069,9.999906 h 9.999906 5.000212 v 4.999695 10.000423 9.999911 4.99969 h -5.000212 -9.999906 v -9.99991 -9.999902 z"
       id="path5"
       style="fill:#ff0000" />
    <path
       d="m 47.733521,72.733545 v 9.999906 9.999907 9.999902 9.99991 9.99991 h 9.999906 v -9.99991 -9.99991 -9.999902 -9.999907 -9.999906 z"
       id="path6"
       style="fill:#ff0000" />
    <path
       d="m 62.733122,72.733545 v 9.999906 9.999907 9.999902 9.99991 10.00042 h 10.000423 v -10.00042 -9.99991 h 9.999906 9.999907 v -9.999902 h -9.999907 -9.999906 v -9.999907 h 9.999906 9.999907 v -9.999906 h -9.999907 -9.999906 z"
       id="path7"
       style="fill:#ff0000" />
    <path
       d="m 97.733569,72.733545 v 9.999906 9.999907 9.999902 9.99991 10.00042 h 9.999911 v -10.00042 -9.99991 h 9.9999 9.99991 v -9.999902 h -9.99991 -9.9999 v -9.999907 h 9.9999 9.99991 v -9.999906 h -9.99991 -9.9999 z"
       id="path8"
       style="fill:#ff0000" />
  </g>
</svg>
